# xmcd
#
# Track frame offsets: 
#        150
#        16011
#        31348
#        46296
#        62031
#        78360
#        92461
#        110059
#        125652
#        143445
#        159636
#
# Disc length: 2341 seconds
#
# Revision: 0
# Processed by: cddbd v1.5.2PL0 Copyright (c) Steve Scherf et al.
# Submitted via: ExactAudioCopy v1.0b3
#
DISCID=8309230b
DTITLE=Madeline Merlo - Free Soul
DYEAR=2016
DGENRE=Country
TTITLE0=Whatcha Wanna Do About It
TTITLE1=War Paint
TTITLE2=Over and Over
TTITLE3=Holding On to Freedom
TTITLE4=Tumbling
TTITLE5=Honey Jack
TTITLE6=Ready to Say Goodnight (feat. Tim Hicks)
TTITLE7=Crush
TTITLE8=Sinking like a Stone
TTITLE9=Alive
TTITLE10=Twist of Fate
EXTD=
EXTT0=
EXTT1=
EXTT2=
EXTT3=
EXTT4=
EXTT5=
EXTT6=
EXTT7=
EXTT8=
EXTT9=
EXTT10=
PLAYORDER=
